<svg width="16" height="14" viewBox="0 0 16 14" fill="none" xmlns="http://www.w3.org/2000/svg">
<path d="M0.5 4.3C0.499908 3.76177 0.607097 3.22893 0.815302 2.73261C1.02351 2.23629 1.32855 1.78644 1.71261 1.40937C2.09667 1.03229 2.55203 0.735553 3.05209 0.536489C3.55215 0.337424 4.08687 0.240029 4.625 0.249996C5.26172 0.246615 5.89189 0.378599 6.47374 0.637199C7.05559 0.8958 7.57584 1.27511 8 1.75C8.42416 1.27511 8.94441 0.8958 9.52626 0.637199C10.1081 0.378599 10.7383 0.246615 11.375 0.249996C11.9131 0.240029 12.4479 0.337424 12.9479 0.536489C13.448 0.735553 13.9033 1.03229 14.2874 1.40937C14.6714 1.78644 14.9765 2.23629 15.1847 2.73261C15.3929 3.22893 15.5001 3.76177 15.5 4.3C15.5 8.317 10.7157 11.35 8 13.75C5.29025 11.3297 0.5 8.32 0.5 4.3Z" fill="black"/>
</svg>
